<?xml version="1.0" encoding="UTF-8" standalone="no"?>
<!DOCTYPE svg PUBLIC "-//W3C//DTD SVG 1.1//EN"
 "http://www.w3.org/Graphics/SVG/1.1/DTD/svg11.dtd">
<!-- Generated by graphviz version 2.42.3 (20191010.1750)
 -->
<!-- Title: inheritancedfb49cbd5e Pages: 1 -->
<svg width="572pt" height="98pt"
 viewBox="0.00 0.00 571.80 98.00" xmlns="http://www.w3.org/2000/svg" xmlns:xlink="http://www.w3.org/1999/xlink">
<g id="graph0" class="graph" transform="scale(1 1) rotate(0) translate(4 94)">
<title>inheritancedfb49cbd5e</title>
<!-- ComponentGroup -->
<g id="node1" class="node">
<title>ComponentGroup</title>
<g id="a_node1"><a xlink:href="../api/dasha.web.templates.ComponentGroup.html#dasha.web.templates.ComponentGroup" xlink:title="This is a base class for managing a set of components as one unit." target="_top">
<polygon fill="white" stroke="black" stroke-width="0.5" points="564.05,-54 468.07,-54 468.07,-36 564.05,-36 564.05,-54"/>
<text text-anchor="middle" x="516.06" y="-42" font-family="Vera Sans, DejaVu Sans, Liberation Sans, Arial, Helvetica, sans" font-size="10.00">ComponentGroup</text>
</a>
</g>
</g>
<!-- ComponentTemplate -->
<g id="node2" class="node">
<title>ComponentTemplate</title>
<g id="a_node2"><a xlink:href="../api/dasha.web.templates.ComponentTemplate.html#dasha.web.templates.ComponentTemplate" xlink:title="A class that wraps a Dash component type." target="_top">
<polygon fill="white" stroke="black" stroke-width="0.5" points="432.45,-54 323.9,-54 323.9,-36 432.45,-36 432.45,-54"/>
<text text-anchor="middle" x="378.17" y="-42" font-family="Vera Sans, DejaVu Sans, Liberation Sans, Arial, Helvetica, sans" font-size="10.00">ComponentTemplate</text>
</a>
</g>
</g>
<!-- ComponentTemplate&#45;&gt;ComponentGroup -->
<g id="edge1" class="edge">
<title>ComponentTemplate&#45;&gt;ComponentGroup</title>
<path fill="none" stroke="black" stroke-width="0.5" d="M432.49,-45C442.49,-45 452.94,-45 462.91,-45"/>
<polygon fill="black" stroke="black" stroke-width="0.5" points="463.07,-46.75 468.07,-45 463.07,-43.25 463.07,-46.75"/>
</g>
<!-- Template -->
<g id="node3" class="node">
<title>Template</title>
<g id="a_node3"><a xlink:href="../api/dasha.web.templates.Template.html#dasha.web.templates.Template" xlink:title="An abstract class that defines an encapsulated entity" target="_top">
<polygon fill="white" stroke="black" stroke-width="0.5" points="287.83,-36 231.67,-36 231.67,-18 287.83,-18 287.83,-36"/>
<text text-anchor="middle" x="259.75" y="-24" font-family="Vera Sans, DejaVu Sans, Liberation Sans, Arial, Helvetica, sans" font-size="10.00">Template</text>
</a>
</g>
</g>
<!-- Template&#45;&gt;ComponentTemplate -->
<g id="edge2" class="edge">
<title>Template&#45;&gt;ComponentTemplate</title>
<path fill="none" stroke="black" stroke-width="0.5" d="M288.05,-31.22C297.37,-32.66 308.19,-34.33 319,-36.01"/>
<polygon fill="black" stroke="black" stroke-width="0.5" points="318.76,-37.74 323.97,-36.77 319.29,-34.28 318.76,-37.74"/>
</g>
<!-- ComponentWrapper -->
<g id="node4" class="node">
<title>ComponentWrapper</title>
<g id="a_node4"><a xlink:href="../api/dasha.web.templates.ComponentWrapper.html#dasha.web.templates.ComponentWrapper" xlink:title="A class that wraps a Dash component instance." target="_top">
<polygon fill="white" stroke="black" stroke-width="0.5" points="431.04,-18 325.31,-18 325.31,0 431.04,0 431.04,-18"/>
<text text-anchor="middle" x="378.17" y="-6" font-family="Vera Sans, DejaVu Sans, Liberation Sans, Arial, Helvetica, sans" font-size="10.00">ComponentWrapper</text>
</a>
</g>
</g>
<!-- Template&#45;&gt;ComponentWrapper -->
<g id="edge3" class="edge">
<title>Template&#45;&gt;ComponentWrapper</title>
<path fill="none" stroke="black" stroke-width="0.5" d="M288.05,-22.78C297.6,-21.3 308.73,-19.58 319.81,-17.87"/>
<polygon fill="black" stroke="black" stroke-width="0.5" points="320.22,-19.58 324.9,-17.08 319.69,-16.12 320.22,-19.58"/>
</g>
<!-- IdTree -->
<g id="node5" class="node">
<title>IdTree</title>
<g id="a_node5"><a xlink:href="../api/dasha.web.templates.IdTree.html#dasha.web.templates.IdTree" xlink:title="A mixin class that provides unique ids for class instances." target="_top">
<polygon fill="white" stroke="black" stroke-width="0.5" points="176.11,-54 122.11,-54 122.11,-36 176.11,-36 176.11,-54"/>
<text text-anchor="middle" x="149.11" y="-42" font-family="Vera Sans, DejaVu Sans, Liberation Sans, Arial, Helvetica, sans" font-size="10.00">IdTree</text>
</a>
</g>
</g>
<!-- IdTree&#45;&gt;Template -->
<g id="edge5" class="edge">
<title>IdTree&#45;&gt;Template</title>
<path fill="none" stroke="black" stroke-width="0.5" d="M176.13,-40.69C191.14,-38.2 210.13,-35.06 226.13,-32.41"/>
<polygon fill="black" stroke="black" stroke-width="0.5" points="226.78,-34.07 231.42,-31.53 226.21,-30.62 226.78,-34.07"/>
</g>
<!-- NodeMixin -->
<g id="node6" class="node">
<title>NodeMixin</title>
<polygon fill="white" stroke="black" stroke-width="0.5" points="65.12,-54 1.64,-54 1.64,-36 65.12,-36 65.12,-54"/>
<text text-anchor="middle" x="33.38" y="-42" font-family="Vera Sans, DejaVu Sans, Liberation Sans, Arial, Helvetica, sans" font-size="10.00">NodeMixin</text>
</g>
<!-- NodeMixin&#45;&gt;IdTree -->
<g id="edge4" class="edge">
<title>NodeMixin&#45;&gt;IdTree</title>
<path fill="none" stroke="black" stroke-width="0.5" d="M65.16,-45C81.12,-45 100.58,-45 116.63,-45"/>
<polygon fill="black" stroke="black" stroke-width="0.5" points="116.94,-46.75 121.94,-45 116.94,-43.25 116.94,-46.75"/>
</g>
<!-- IdTreeMeta -->
<g id="node7" class="node">
<title>IdTreeMeta</title>
<g id="a_node7"><a xlink:href="../api/dasha.web.templates.IdTreeMeta.html#dasha.web.templates.IdTreeMeta" xlink:title="IdTreeMeta" target="_top">
<polygon fill="white" stroke="black" stroke-width="0.5" points="66.65,-90 0.12,-90 0.12,-72 66.65,-72 66.65,-90"/>
<text text-anchor="middle" x="33.38" y="-78" font-family="Vera Sans, DejaVu Sans, Liberation Sans, Arial, Helvetica, sans" font-size="10.00">IdTreeMeta</text>
</a>
</g>
</g>
<!-- NamespaceMixin -->
<g id="node8" class="node">
<title>NamespaceMixin</title>
<g id="a_node8"><a xlink:title="A mixin class that allows converting object to and from dict.">
<polygon fill="white" stroke="black" stroke-width="0.5" points="195.31,-18 102.92,-18 102.92,0 195.31,0 195.31,-18"/>
<text text-anchor="middle" x="149.11" y="-6" font-family="Vera Sans, DejaVu Sans, Liberation Sans, Arial, Helvetica, sans" font-size="10.00">NamespaceMixin</text>
</a>
</g>
</g>
<!-- NamespaceMixin&#45;&gt;Template -->
<g id="edge6" class="edge">
<title>NamespaceMixin&#45;&gt;Template</title>
<path fill="none" stroke="black" stroke-width="0.5" d="M195.56,-16.53C205.95,-18.25 216.8,-20.05 226.51,-21.66"/>
<polygon fill="black" stroke="black" stroke-width="0.5" points="226.25,-23.39 231.47,-22.48 226.82,-19.94 226.25,-23.39"/>
</g>
</g>
</svg>
