<?xml version="1.0" encoding="UTF-8" standalone="no"?>
<!DOCTYPE svg PUBLIC "-//W3C//DTD SVG 1.1//EN"
 "http://www.w3.org/Graphics/SVG/1.1/DTD/svg11.dtd">
<!-- Generated by graphviz version 2.43.0 (0)
 -->
<!-- Title: inheritancecb34465273 Pages: 1 -->
<svg width="566pt" height="116pt"
 viewBox="0.00 0.00 566.44 116.00" xmlns="http://www.w3.org/2000/svg" xmlns:xlink="http://www.w3.org/1999/xlink">
<g id="graph0" class="graph" transform="scale(1 1) rotate(0) translate(4 112)">
<title>inheritancecb34465273</title>
<polygon fill="white" stroke="transparent" points="-4,4 -4,-112 562.44,-112 562.44,4 -4,4"/>
<!-- ABCMeta -->
<g id="node1" class="node">
<title>ABCMeta</title>
<g id="a_node1"><a xlink:title="Metaclass for defining Abstract Base Classes (ABCs).">
<polygon fill="none" stroke="black" stroke-width="0.5" points="62.68,-54 4.09,-54 4.09,-36 62.68,-36 62.68,-54"/>
<text text-anchor="middle" x="33.38" y="-42" font-family="Vera Sans, DejaVu Sans, Liberation Sans, Arial, Helvetica, sans" font-size="10.00">ABCMeta</text>
</a>
</g>
</g>
<!-- IdTreeABCMeta -->
<g id="node8" class="node">
<title>IdTreeABCMeta</title>
<g id="a_node8"><a xlink:href="../../api/dasha.web.templates.IdTreeABCMeta.html#dasha.web.templates.IdTreeABCMeta" xlink:title="IdTreeABCMeta" target="_top">
<polygon fill="none" stroke="black" stroke-width="0.5" points="190.26,-36 102.6,-36 102.6,-18 190.26,-18 190.26,-36"/>
<text text-anchor="middle" x="146.43" y="-24" font-family="Vera Sans, DejaVu Sans, Liberation Sans, Arial, Helvetica, sans" font-size="10.00">IdTreeABCMeta</text>
</a>
</g>
</g>
<!-- ABCMeta&#45;&gt;IdTreeABCMeta -->
<g id="edge6" class="edge">
<title>ABCMeta&#45;&gt;IdTreeABCMeta</title>
<path fill="none" stroke="black" stroke-width="0.5" d="M62.69,-40.41C73.26,-38.7 85.58,-36.7 97.43,-34.78"/>
<polygon fill="black" stroke="black" stroke-width="0.5" points="97.82,-36.49 102.48,-33.96 97.26,-33.03 97.82,-36.49"/>
</g>
<!-- ComponentGroup -->
<g id="node2" class="node">
<title>ComponentGroup</title>
<g id="a_node2"><a xlink:href="../../api/dasha.web.templates.ComponentGroup.html#dasha.web.templates.ComponentGroup" xlink:title="This is a base class for managing a set of components as one unit." target="_top">
<polygon fill="none" stroke="black" stroke-width="0.5" points="558.69,-108 462.7,-108 462.7,-90 558.69,-90 558.69,-108"/>
<text text-anchor="middle" x="510.69" y="-96" font-family="Vera Sans, DejaVu Sans, Liberation Sans, Arial, Helvetica, sans" font-size="10.00">ComponentGroup</text>
</a>
</g>
</g>
<!-- ComponentTemplate -->
<g id="node3" class="node">
<title>ComponentTemplate</title>
<g id="a_node3"><a xlink:href="../../api/dasha.web.templates.ComponentTemplate.html#dasha.web.templates.ComponentTemplate" xlink:title="A base class that wraps a Dash component type." target="_top">
<polygon fill="none" stroke="black" stroke-width="0.5" points="427.08,-108 318.53,-108 318.53,-90 427.08,-90 427.08,-108"/>
<text text-anchor="middle" x="372.81" y="-96" font-family="Vera Sans, DejaVu Sans, Liberation Sans, Arial, Helvetica, sans" font-size="10.00">ComponentTemplate</text>
</a>
</g>
</g>
<!-- ComponentTemplate&#45;&gt;ComponentGroup -->
<g id="edge1" class="edge">
<title>ComponentTemplate&#45;&gt;ComponentGroup</title>
<path fill="none" stroke="black" stroke-width="0.5" d="M427.12,-99C437.13,-99 447.58,-99 457.54,-99"/>
<polygon fill="black" stroke="black" stroke-width="0.5" points="457.71,-100.75 462.71,-99 457.71,-97.25 457.71,-100.75"/>
</g>
<!-- Template -->
<g id="node4" class="node">
<title>Template</title>
<g id="a_node4"><a xlink:href="../../api/dasha.web.templates.Template.html#dasha.web.templates.Template" xlink:title="An abstract class that defines an encapsulated entity" target="_top">
<polygon fill="none" stroke="black" stroke-width="0.5" points="282.46,-90 226.31,-90 226.31,-72 282.46,-72 282.46,-90"/>
<text text-anchor="middle" x="254.38" y="-78" font-family="Vera Sans, DejaVu Sans, Liberation Sans, Arial, Helvetica, sans" font-size="10.00">Template</text>
</a>
</g>
</g>
<!-- Template&#45;&gt;ComponentTemplate -->
<g id="edge2" class="edge">
<title>Template&#45;&gt;ComponentTemplate</title>
<path fill="none" stroke="black" stroke-width="0.5" d="M282.68,-85.22C292,-86.66 302.82,-88.33 313.64,-90.01"/>
<polygon fill="black" stroke="black" stroke-width="0.5" points="313.39,-91.74 318.6,-90.77 313.93,-88.28 313.39,-91.74"/>
</g>
<!-- ComponentWrapper -->
<g id="node5" class="node">
<title>ComponentWrapper</title>
<g id="a_node5"><a xlink:href="../../api/dasha.web.templates.ComponentWrapper.html#dasha.web.templates.ComponentWrapper" xlink:title="A class that wraps an existing Dash component." target="_top">
<polygon fill="none" stroke="black" stroke-width="0.5" points="425.68,-72 319.94,-72 319.94,-54 425.68,-54 425.68,-72"/>
<text text-anchor="middle" x="372.81" y="-60" font-family="Vera Sans, DejaVu Sans, Liberation Sans, Arial, Helvetica, sans" font-size="10.00">ComponentWrapper</text>
</a>
</g>
</g>
<!-- Template&#45;&gt;ComponentWrapper -->
<g id="edge3" class="edge">
<title>Template&#45;&gt;ComponentWrapper</title>
<path fill="none" stroke="black" stroke-width="0.5" d="M282.68,-76.78C292.24,-75.3 303.36,-73.58 314.45,-71.87"/>
<polygon fill="black" stroke="black" stroke-width="0.5" points="314.86,-73.58 319.53,-71.08 314.32,-70.12 314.86,-73.58"/>
</g>
<!-- IdTree -->
<g id="node6" class="node">
<title>IdTree</title>
<g id="a_node6"><a xlink:href="../../api/dasha.web.templates.IdTree.html#dasha.web.templates.IdTree" xlink:title="A mixin class that provides unique ids for class instances." target="_top">
<polygon fill="none" stroke="black" stroke-width="0.5" points="173.43,-90 119.43,-90 119.43,-72 173.43,-72 173.43,-90"/>
<text text-anchor="middle" x="146.43" y="-78" font-family="Vera Sans, DejaVu Sans, Liberation Sans, Arial, Helvetica, sans" font-size="10.00">IdTree</text>
</a>
</g>
</g>
<!-- IdTree&#45;&gt;Template -->
<g id="edge7" class="edge">
<title>IdTree&#45;&gt;Template</title>
<path fill="none" stroke="black" stroke-width="0.5" d="M173.62,-81C187.94,-81 205.79,-81 220.98,-81"/>
<polygon fill="black" stroke="black" stroke-width="0.5" points="221.02,-82.75 226.02,-81 221.02,-79.25 221.02,-82.75"/>
</g>
<!-- NodeMixin -->
<g id="node7" class="node">
<title>NodeMixin</title>
<polygon fill="none" stroke="black" stroke-width="0.5" points="65.12,-90 1.64,-90 1.64,-72 65.12,-72 65.12,-90"/>
<text text-anchor="middle" x="33.38" y="-78" font-family="Vera Sans, DejaVu Sans, Liberation Sans, Arial, Helvetica, sans" font-size="10.00">NodeMixin</text>
</g>
<!-- NodeMixin&#45;&gt;IdTree -->
<g id="edge4" class="edge">
<title>NodeMixin&#45;&gt;IdTree</title>
<path fill="none" stroke="black" stroke-width="0.5" d="M65.02,-81C80.36,-81 98.9,-81 114.31,-81"/>
<polygon fill="black" stroke="black" stroke-width="0.5" points="114.41,-82.75 119.41,-81 114.41,-79.25 114.41,-82.75"/>
</g>
<!-- IdTreeMeta -->
<g id="node9" class="node">
<title>IdTreeMeta</title>
<g id="a_node9"><a xlink:href="../../api/dasha.web.templates.IdTreeMeta.html#dasha.web.templates.IdTreeMeta" xlink:title="IdTreeMeta" target="_top">
<polygon fill="none" stroke="black" stroke-width="0.5" points="66.65,-18 0.12,-18 0.12,0 66.65,0 66.65,-18"/>
<text text-anchor="middle" x="33.38" y="-6" font-family="Vera Sans, DejaVu Sans, Liberation Sans, Arial, Helvetica, sans" font-size="10.00">IdTreeMeta</text>
</a>
</g>
</g>
<!-- IdTreeMeta&#45;&gt;IdTreeABCMeta -->
<g id="edge5" class="edge">
<title>IdTreeMeta&#45;&gt;IdTreeABCMeta</title>
<path fill="none" stroke="black" stroke-width="0.5" d="M66.8,-14.25C76.37,-15.81 87.06,-17.54 97.4,-19.21"/>
<polygon fill="black" stroke="black" stroke-width="0.5" points="97.22,-20.96 102.44,-20.03 97.78,-17.5 97.22,-20.96"/>
</g>
</g>
</svg>
