<?xml version="1.0" encoding="UTF-8" standalone="no"?>
<!DOCTYPE svg PUBLIC "-//W3C//DTD SVG 1.1//EN"
 "http://www.w3.org/Graphics/SVG/1.1/DTD/svg11.dtd">
<!-- Generated by graphviz version 2.42.3 (20191010.1750)
 -->
<!-- Title: inheritanced4da4b7362 Pages: 1 -->
<svg width="309pt" height="98pt"
 viewBox="0.00 0.00 309.20 98.00" xmlns="http://www.w3.org/2000/svg" xmlns:xlink="http://www.w3.org/1999/xlink">
<g id="graph0" class="graph" transform="scale(1 1) rotate(0) translate(4 94)">
<title>inheritanced4da4b7362</title>
<!-- Extension -->
<g id="node1" class="node">
<title>Extension</title>
<g id="a_node1"><a xlink:href="../api/dasha.core.Extension.html#dasha.core.Extension" xlink:title="This class provides a unified interface to configure and initialize" target="_top">
<polygon fill="white" stroke="black" stroke-width="0.5" points="301.16,-90 241.33,-90 241.33,-72 301.16,-72 301.16,-90"/>
<text text-anchor="middle" x="271.24" y="-78" font-family="Vera Sans, DejaVu Sans, Liberation Sans, Arial, Helvetica, sans" font-size="10.00">Extension</text>
</a>
</g>
</g>
<!-- Namespace -->
<g id="node2" class="node">
<title>Namespace</title>
<g id="a_node2"><a xlink:title="A convenient class that manages a set of attributes.">
<polygon fill="white" stroke="black" stroke-width="0.5" points="205.47,-54 135.75,-54 135.75,-36 205.47,-36 205.47,-54"/>
<text text-anchor="middle" x="170.61" y="-42" font-family="Vera Sans, DejaVu Sans, Liberation Sans, Arial, Helvetica, sans" font-size="10.00">Namespace</text>
</a>
</g>
</g>
<!-- Namespace&#45;&gt;Extension -->
<g id="edge1" class="edge">
<title>Namespace&#45;&gt;Extension</title>
<path fill="none" stroke="black" stroke-width="0.5" d="M196.5,-54.08C209.81,-58.94 226.31,-64.97 240.32,-70.08"/>
<polygon fill="black" stroke="black" stroke-width="0.5" points="240.06,-71.85 245.36,-71.92 241.26,-68.56 240.06,-71.85"/>
</g>
<!-- Site -->
<g id="node5" class="node">
<title>Site</title>
<g id="a_node5"><a xlink:href="../api/dasha.core.Site.html#dasha.core.Site" xlink:title="This class manages the context of a DashA site, composed of a server and" target="_top">
<polygon fill="white" stroke="black" stroke-width="0.5" points="298.24,-54 244.24,-54 244.24,-36 298.24,-36 298.24,-54"/>
<text text-anchor="middle" x="271.24" y="-42" font-family="Vera Sans, DejaVu Sans, Liberation Sans, Arial, Helvetica, sans" font-size="10.00">Site</text>
</a>
</g>
</g>
<!-- Namespace&#45;&gt;Site -->
<g id="edge4" class="edge">
<title>Namespace&#45;&gt;Site</title>
<path fill="none" stroke="black" stroke-width="0.5" d="M205.55,-45C216.37,-45 228.3,-45 238.92,-45"/>
<polygon fill="black" stroke="black" stroke-width="0.5" points="239.03,-46.75 244.03,-45 239.03,-43.25 239.03,-46.75"/>
</g>
<!-- Stack -->
<g id="node6" class="node">
<title>Stack</title>
<g id="a_node6"><a xlink:href="../api/dasha.core.Stack.html#dasha.core.Stack" xlink:title="This class is a thin wrapper around a set of extensions." target="_top">
<polygon fill="white" stroke="black" stroke-width="0.5" points="298.24,-18 244.24,-18 244.24,0 298.24,0 298.24,-18"/>
<text text-anchor="middle" x="271.24" y="-6" font-family="Vera Sans, DejaVu Sans, Liberation Sans, Arial, Helvetica, sans" font-size="10.00">Stack</text>
</a>
</g>
</g>
<!-- Namespace&#45;&gt;Stack -->
<g id="edge5" class="edge">
<title>Namespace&#45;&gt;Stack</title>
<path fill="none" stroke="black" stroke-width="0.5" d="M196.5,-35.92C209.81,-31.06 226.31,-25.03 240.32,-19.92"/>
<polygon fill="black" stroke="black" stroke-width="0.5" points="241.26,-21.44 245.36,-18.08 240.06,-18.15 241.26,-21.44"/>
</g>
<!-- NamespaceMixin -->
<g id="node3" class="node">
<title>NamespaceMixin</title>
<g id="a_node3"><a xlink:title="A mixin class that allows converting object to and from dict.">
<polygon fill="white" stroke="black" stroke-width="0.5" points="96.16,-72 3.77,-72 3.77,-54 96.16,-54 96.16,-72"/>
<text text-anchor="middle" x="49.96" y="-60" font-family="Vera Sans, DejaVu Sans, Liberation Sans, Arial, Helvetica, sans" font-size="10.00">NamespaceMixin</text>
</a>
</g>
</g>
<!-- NamespaceMixin&#45;&gt;Namespace -->
<g id="edge2" class="edge">
<title>NamespaceMixin&#45;&gt;Namespace</title>
<path fill="none" stroke="black" stroke-width="0.5" d="M96.49,-56.09C107.83,-54.37 119.87,-52.55 130.85,-50.88"/>
<polygon fill="black" stroke="black" stroke-width="0.5" points="131.12,-52.61 135.81,-50.13 130.6,-49.15 131.12,-52.61"/>
</g>
<!-- SimpleNamespace -->
<g id="node4" class="node">
<title>SimpleNamespace</title>
<g id="a_node4"><a xlink:title="A simple attribute&#45;based namespace.">
<polygon fill="white" stroke="black" stroke-width="0.5" points="99.89,-36 0.04,-36 0.04,-18 99.89,-18 99.89,-36"/>
<text text-anchor="middle" x="49.96" y="-24" font-family="Vera Sans, DejaVu Sans, Liberation Sans, Arial, Helvetica, sans" font-size="10.00">SimpleNamespace</text>
</a>
</g>
</g>
<!-- SimpleNamespace&#45;&gt;Namespace -->
<g id="edge3" class="edge">
<title>SimpleNamespace&#45;&gt;Namespace</title>
<path fill="none" stroke="black" stroke-width="0.5" d="M99.9,-34.43C110.12,-35.98 120.77,-37.59 130.57,-39.08"/>
<polygon fill="black" stroke="black" stroke-width="0.5" points="130.41,-40.82 135.61,-39.84 130.93,-37.36 130.41,-40.82"/>
</g>
</g>
</svg>
