<?xml version="1.0" encoding="UTF-8" standalone="no"?>
<!DOCTYPE svg PUBLIC "-//W3C//DTD SVG 1.1//EN"
 "http://www.w3.org/Graphics/SVG/1.1/DTD/svg11.dtd">
<!-- Generated by graphviz version 2.42.3 (20191010.1750)
 -->
<!-- Title: inheritancefb43b62950 Pages: 1 -->
<svg width="572pt" height="116pt"
 viewBox="0.00 0.00 571.80 116.00" xmlns="http://www.w3.org/2000/svg" xmlns:xlink="http://www.w3.org/1999/xlink">
<g id="graph0" class="graph" transform="scale(1 1) rotate(0) translate(4 112)">
<title>inheritancefb43b62950</title>
<!-- ComponentGroup -->
<g id="node1" class="node">
<title>ComponentGroup</title>
<g id="a_node1"><a xlink:href="../api/dasha.web.templates.ComponentGroup.html#dasha.web.templates.ComponentGroup" xlink:title="This is a base class for managing a set of components as one unit." target="_top">
<polygon fill="white" stroke="black" stroke-width="0.5" points="564.05,-90 468.07,-90 468.07,-72 564.05,-72 564.05,-90"/>
<text text-anchor="middle" x="516.06" y="-78" font-family="Vera Sans, DejaVu Sans, Liberation Sans, Arial, Helvetica, sans" font-size="10.00">ComponentGroup</text>
</a>
</g>
</g>
<!-- ComponentTemplate -->
<g id="node2" class="node">
<title>ComponentTemplate</title>
<g id="a_node2"><a xlink:href="../api/dasha.web.templates.ComponentTemplate.html#dasha.web.templates.ComponentTemplate" xlink:title="A class that wraps a Dash component type." target="_top">
<polygon fill="white" stroke="black" stroke-width="0.5" points="432.45,-90 323.9,-90 323.9,-72 432.45,-72 432.45,-90"/>
<text text-anchor="middle" x="378.17" y="-78" font-family="Vera Sans, DejaVu Sans, Liberation Sans, Arial, Helvetica, sans" font-size="10.00">ComponentTemplate</text>
</a>
</g>
</g>
<!-- ComponentTemplate&#45;&gt;ComponentGroup -->
<g id="edge1" class="edge">
<title>ComponentTemplate&#45;&gt;ComponentGroup</title>
<path fill="none" stroke="black" stroke-width="0.5" d="M432.49,-81C442.49,-81 452.94,-81 462.91,-81"/>
<polygon fill="black" stroke="black" stroke-width="0.5" points="463.07,-82.75 468.07,-81 463.07,-79.25 463.07,-82.75"/>
</g>
<!-- ComponentRoot -->
<g id="node3" class="node">
<title>ComponentRoot</title>
<g id="a_node3"><a xlink:href="../api/dasha.web.templates.ComponentRoot.html#dasha.web.templates.ComponentRoot" xlink:title="A class that serves as a virtual root component." target="_top">
<polygon fill="white" stroke="black" stroke-width="0.5" points="422.5,-54 333.85,-54 333.85,-36 422.5,-36 422.5,-54"/>
<text text-anchor="middle" x="378.17" y="-42" font-family="Vera Sans, DejaVu Sans, Liberation Sans, Arial, Helvetica, sans" font-size="10.00">ComponentRoot</text>
</a>
</g>
</g>
<!-- Template -->
<g id="node4" class="node">
<title>Template</title>
<g id="a_node4"><a xlink:href="../api/dasha.web.templates.Template.html#dasha.web.templates.Template" xlink:title="An abstract class that defines an encapsulated entity" target="_top">
<polygon fill="white" stroke="black" stroke-width="0.5" points="287.83,-54 231.67,-54 231.67,-36 287.83,-36 287.83,-54"/>
<text text-anchor="middle" x="259.75" y="-42" font-family="Vera Sans, DejaVu Sans, Liberation Sans, Arial, Helvetica, sans" font-size="10.00">Template</text>
</a>
</g>
</g>
<!-- Template&#45;&gt;ComponentTemplate -->
<g id="edge3" class="edge">
<title>Template&#45;&gt;ComponentTemplate</title>
<path fill="none" stroke="black" stroke-width="0.5" d="M288.05,-53.44C304.51,-58.53 325.62,-65.06 343.17,-70.48"/>
<polygon fill="black" stroke="black" stroke-width="0.5" points="342.72,-72.18 348.01,-71.98 343.75,-68.83 342.72,-72.18"/>
</g>
<!-- Template&#45;&gt;ComponentRoot -->
<g id="edge2" class="edge">
<title>Template&#45;&gt;ComponentRoot</title>
<path fill="none" stroke="black" stroke-width="0.5" d="M288.05,-45C300.14,-45 314.74,-45 328.59,-45"/>
<polygon fill="black" stroke="black" stroke-width="0.5" points="328.65,-46.75 333.65,-45 328.65,-43.25 328.65,-46.75"/>
</g>
<!-- ComponentWrapper -->
<g id="node5" class="node">
<title>ComponentWrapper</title>
<g id="a_node5"><a xlink:href="../api/dasha.web.templates.ComponentWrapper.html#dasha.web.templates.ComponentWrapper" xlink:title="A class that wraps a Dash component instance." target="_top">
<polygon fill="white" stroke="black" stroke-width="0.5" points="431.04,-18 325.31,-18 325.31,0 431.04,0 431.04,-18"/>
<text text-anchor="middle" x="378.17" y="-6" font-family="Vera Sans, DejaVu Sans, Liberation Sans, Arial, Helvetica, sans" font-size="10.00">ComponentWrapper</text>
</a>
</g>
</g>
<!-- Template&#45;&gt;ComponentWrapper -->
<g id="edge4" class="edge">
<title>Template&#45;&gt;ComponentWrapper</title>
<path fill="none" stroke="black" stroke-width="0.5" d="M288.05,-36.56C304.51,-31.47 325.62,-24.94 343.17,-19.52"/>
<polygon fill="black" stroke="black" stroke-width="0.5" points="343.75,-21.17 348.01,-18.02 342.72,-17.82 343.75,-21.17"/>
</g>
<!-- IdTree -->
<g id="node6" class="node">
<title>IdTree</title>
<g id="a_node6"><a xlink:href="../api/dasha.web.templates.IdTree.html#dasha.web.templates.IdTree" xlink:title="A mixin class that provides unique ids for class instances." target="_top">
<polygon fill="white" stroke="black" stroke-width="0.5" points="176.11,-72 122.11,-72 122.11,-54 176.11,-54 176.11,-72"/>
<text text-anchor="middle" x="149.11" y="-60" font-family="Vera Sans, DejaVu Sans, Liberation Sans, Arial, Helvetica, sans" font-size="10.00">IdTree</text>
</a>
</g>
</g>
<!-- IdTree&#45;&gt;Template -->
<g id="edge6" class="edge">
<title>IdTree&#45;&gt;Template</title>
<path fill="none" stroke="black" stroke-width="0.5" d="M176.13,-58.69C191.14,-56.2 210.13,-53.06 226.13,-50.41"/>
<polygon fill="black" stroke="black" stroke-width="0.5" points="226.78,-52.07 231.42,-49.53 226.21,-48.62 226.78,-52.07"/>
</g>
<!-- NodeMixin -->
<g id="node7" class="node">
<title>NodeMixin</title>
<polygon fill="white" stroke="black" stroke-width="0.5" points="65.12,-72 1.64,-72 1.64,-54 65.12,-54 65.12,-72"/>
<text text-anchor="middle" x="33.38" y="-60" font-family="Vera Sans, DejaVu Sans, Liberation Sans, Arial, Helvetica, sans" font-size="10.00">NodeMixin</text>
</g>
<!-- NodeMixin&#45;&gt;IdTree -->
<g id="edge5" class="edge">
<title>NodeMixin&#45;&gt;IdTree</title>
<path fill="none" stroke="black" stroke-width="0.5" d="M65.16,-63C81.12,-63 100.58,-63 116.63,-63"/>
<polygon fill="black" stroke="black" stroke-width="0.5" points="116.94,-64.75 121.94,-63 116.94,-61.25 116.94,-64.75"/>
</g>
<!-- IdTreeMeta -->
<g id="node8" class="node">
<title>IdTreeMeta</title>
<g id="a_node8"><a xlink:href="../api/dasha.web.templates.IdTreeMeta.html#dasha.web.templates.IdTreeMeta" xlink:title="IdTreeMeta" target="_top">
<polygon fill="white" stroke="black" stroke-width="0.5" points="66.65,-108 0.12,-108 0.12,-90 66.65,-90 66.65,-108"/>
<text text-anchor="middle" x="33.38" y="-96" font-family="Vera Sans, DejaVu Sans, Liberation Sans, Arial, Helvetica, sans" font-size="10.00">IdTreeMeta</text>
</a>
</g>
</g>
<!-- NamespaceMixin -->
<g id="node9" class="node">
<title>NamespaceMixin</title>
<g id="a_node9"><a xlink:title="A mixin class that allows converting object to and from dict.">
<polygon fill="white" stroke="black" stroke-width="0.5" points="195.31,-36 102.92,-36 102.92,-18 195.31,-18 195.31,-36"/>
<text text-anchor="middle" x="149.11" y="-24" font-family="Vera Sans, DejaVu Sans, Liberation Sans, Arial, Helvetica, sans" font-size="10.00">NamespaceMixin</text>
</a>
</g>
</g>
<!-- NamespaceMixin&#45;&gt;Template -->
<g id="edge7" class="edge">
<title>NamespaceMixin&#45;&gt;Template</title>
<path fill="none" stroke="black" stroke-width="0.5" d="M195.56,-34.53C205.95,-36.25 216.8,-38.05 226.51,-39.66"/>
<polygon fill="black" stroke="black" stroke-width="0.5" points="226.25,-41.39 231.47,-40.48 226.82,-37.94 226.25,-41.39"/>
</g>
</g>
</svg>
